<?xml version="1.0" encoding="UTF-8"?>
<svg viewBox="0 0 165.22336 121.8363" xmlns="http://www.w3.org/2000/svg">
 <g transform="matrix(1.3371 0 0 1.3371 -324.24 -67.557)">
  <path transform="matrix(1.1457 0 0 1.3491 -36.149 -41.252)" d="m351.07 116.65c0 10.454-24.145 18.929-53.929 18.929s-53.929-8.4746-53.929-18.929 24.145-18.929 53.929-18.929 53.929 8.4746 53.929 18.929z"/>
  <path d="m267.5 119.51c29.243 16.384 51.877 11.241 72.857 0.71428l-8.9286-57.143c-1.7066-10.922-42.015-16.102-44.911-6.5179l-19.018 62.946z" stroke="#353535" stroke-width="2"/>
  <path d="m288.26 61.701-12.448 42.576 3.8899 2.0491 12.225-42.121-3.6676-2.5045z" fill="#4b4b4b" fill-opacity=".80784"/>
  <path d="m271.25 107.72c21.423 10.344 46.096 13.831 67.143 1.25l1.9643 11.071-5 2.6786-10.536 3.9286-9.6429 2.3214-8.75 0.89286h-7.5l-8.75-1.4286-12.321-3.75-8.9286-4.1071-1.6071-1.0714 3.9286-11.786z" fill="#266629"/>
  <path d="m331.59 63.146c-1.7066-10.922-42.176-16.172-45.239-6.5191 12.764 10.243 30.006 12.367 45.239 6.5191z" fill="#353535"/>
  <path d="m255.89 112.36c-1.0913 2.7927-1.0768 6.2159 1.1739 8.5167 2.2313 2.2809 4.922 4.0944 7.8165 5.2415 11.628 4.608 23.939 8.4214 36.298 10.678 1.4127 0.25798 2.969 2.2236 0.55527 2.2452-18.979-1.0354-49.18-7.8726-54.378-20.38-1.638-3.941-0.0775-9.0056 3.9005-10.595 1.7313-0.69182 6.6573-2.9268 6.39 0.27324-0.12191 1.4599-1.2196 2.6454-1.7566 4.0198z" fill="#646464" fill-opacity=".80784"/>
  <path d="m279.06 108.57-3.1278 14.544 19.108 5.866 2.1579-15.451-18.138-4.9589zm2.5639 3.1147 12.384 3.6285-1.7013 9.942-12.685-4.0155 2.0015-9.555z" fill="#ffe100" stroke="#ffe100" stroke-width=".98403"/>
  <path d="m267.5 119.51c29.243 16.384 51.877 11.241 72.857 0.71428l-8.9286-57.143c-1.7066-10.922-42.015-16.102-44.911-6.5179l-19.018 62.946z" fill="none" stroke="#353535" stroke-width="2"/>
 </g>
</svg>
